<svg xmlns="http://www.w3.org/2000/svg" viewBox="0 0 24 24"><path fill="#E83628" d="M12 0C5.383 0 0 5.383 0 12s5.383 12 12 12 12-5.383 12-12S18.617 0 12 0z"/><path fill="#FFF" d="M12 .25c6.575 0 11.926 5.316 11.994 11.875 0-.042.006-.083.006-.125 0-6.617-5.383-12-12-12S0 5.383 0 12c0 .042.006.083.006.125C.074 5.566 5.426.25 12 .25z" opacity=".2"/><path d="M12 23.75C5.425 23.75.074 18.434.006 11.875c0 .042-.006.083-.006.125 0 6.617 5.383 12 12 12s12-5.383 12-12c0-.042-.006-.083-.006-.125C23.926 18.434 18.574 23.75 12 23.75z" opacity=".1"/><path fill="#FFF" d="M16.086 6.5L12 10.586 7.914 6.5 6.5 7.914 10.586 12 6.5 16.086 7.914 17.5 12 13.414l4.086 4.086 1.414-1.414L13.414 12 17.5 7.914z"/><linearGradient id="a" x1="13.117" x2="19.268" y1="13.117" y2="19.268" gradientUnits="userSpaceOnUse"><stop offset="0" stop-opacity=".1"/><stop offset="1" stop-opacity="0"/></linearGradient><path fill="url(#a)" d="M17.5 7.914L13.414 12l4.086 4.086-1.414 1.414L12 13.414 7.914 17.5l6.289 6.288a12.02 12.02 0 0 0 9.585-9.585L17.5 7.914z"/><linearGradient id="b" x1="1.125" x2="22.875" y1="6.929" y2="17.071" gradientUnits="userSpaceOnUse"><stop offset="0" stop-color="#FFF" stop-opacity=".2"/><stop offset="1" stop-color="#FFF" stop-opacity="0"/></linearGradient><path fill="url(#b)" d="M12 0C5.383 0 0 5.383 0 12s5.383 12 12 12 12-5.383 12-12S18.617 0 12 0z"/></svg>