<svg id="SvgjsSvg1001" width="288" height="288" xmlns="http://www.w3.org/2000/svg" version="1.1" xmlns:xlink="http://www.w3.org/1999/xlink" xmlns:svgjs="http://svgjs.com/svgjs"><g id="SvgjsG1021" fill="#a3e2f1" transform="matrix(0.9167,0,0,0.9167,11.995200000000011,11.995200000000011)"><circle id="SvgjsCircle1022" r="144" cx="144" cy="144"></circle><rect id="SvgjsRect1023" width="164" height="164" x="124" y="124" rx="20" ry="20"></rect></g><defs id="SvgjsDefs1002"></defs><g id="SvgjsG1008" transform="matrix(0.4652,0,0,0.4652,77.0112,77.0112)"><svg xmlns="http://www.w3.org/2000/svg" viewBox="0 0 256 256" width="288" height="288"><rect width="256" height="256" fill="none"></rect><path fill="none" stroke="#6c6c6c" stroke-linecap="round" stroke-linejoin="round" stroke-width="24" d="M130.49413,63.28047l11.648-11.648a44,44,0,1,1,62.22539,62.22539l-28.28427,28.28428a44,44,0,0,1-62.2254,0" class="colorStroke000 svgStroke"></path><path fill="none" stroke="#6c6c6c" stroke-linecap="round" stroke-linejoin="round" stroke-width="24" d="M125.50407,192.72133l-11.64621,11.6462a44,44,0,1,1-62.22539-62.22539l28.28427-28.28428a44,44,0,0,1,62.2254,0" class="colorStroke000 svgStroke"></path></svg></g></svg>